HIERARCHY
ROOT hips
{
	OFFSET -0.003675 0.299928 -0.021708
	CHANNELS 6 Xposition Yposition Zposition Xrotation Yrotation Zrotation
	JOINT LowerBack
	{
		OFFSET 0.000919 0.177588 0.009275
		CHANNELS 3 Xrotation Yrotation Zrotation
		JOINT spine
		{
			OFFSET 0.000919 0.177588 0.009275
			CHANNELS 3 Xrotation Yrotation Zrotation
			JOINT chest
			{
				OFFSET 0.000456 0.100015 0.004638
				CHANNELS 3 Xrotation Yrotation Zrotation
				JOINT neck
				{
					OFFSET 0.000456 0.100015 0.004638
					CHANNELS 3 Xrotation Yrotation Zrotation
					JOINT head
					{
						OFFSET 0.000924 0.155147 0.009274
						CHANNELS 6 Xposition Yposition Zposition Xrotation Yrotation Zrotation
						End Site
						{
							OFFSET 0.000000 0.153400 0.000000
						}
					}
				}
				JOINT shoulder.L
				{
					OFFSET 0.019937 0.078966 0.057518
					CHANNELS 6 Xposition Yposition Zposition Yrotation Xrotation Zrotation
					JOINT upper_arm.L
					{
						OFFSET 0.177024 -0.020465 -0.095062
						CHANNELS 6 Xposition Yposition Zposition Xrotation Yrotation Zrotation
						JOINT forearm.L
						{
							OFFSET 0.247100 -0.135500 -0.061800
							CHANNELS 3 Xrotation Yrotation Zrotation
							JOINT hand.L
							{
								OFFSET 0.217000 -0.143000 0.039300
								CHANNELS 3 Xrotation Yrotation Zrotation
								JOINT palm.01.L
								{
									OFFSET 0.021770 -0.038291 0.012954
									CHANNELS 6 Xposition Yposition Zposition Yrotation Xrotation Zrotation
									JOINT f_index.01.L
									{
										OFFSET 0.053215 -0.044137 0.008236
										CHANNELS 3 Xrotation Yrotation Zrotation
										JOINT f_index.02.L
										{
											OFFSET 0.036108 -0.024723 -0.010656
											CHANNELS 3 Xrotation Yrotation Zrotation
											JOINT f_index.03.L
											{
												OFFSET 0.021342 -0.014948 -0.010846
												CHANNELS 3 Xrotation Yrotation Zrotation
												End Site
												{
													OFFSET 0.015600 -0.009860 -0.013421
												}
											}
										}
									}
									JOINT thumb.01.L
									{
										OFFSET -0.009090 -0.002348 -0.024223
										CHANNELS 6 Xposition Yposition Zposition Xrotation Yrotation Zrotation
										JOINT thumb.02.L
										{
											OFFSET 0.019713 -0.035076 -0.011120
											CHANNELS 3 Xrotation Yrotation Zrotation
											JOINT thumb.03.L
											{
												OFFSET 0.024877 -0.021748 -0.005176
												CHANNELS 3 Xrotation Yrotation Zrotation
												End Site
												{
													OFFSET 0.016125 -0.013029 -0.001569
												}
											}
										}
									}
								}
								JOINT palm.02.L
								{
									OFFSET 0.032823 -0.025104 0.012281
									CHANNELS 6 Xposition Yposition Zposition Yrotation Xrotation Zrotation
									JOINT f_middle.01.L
									{
										OFFSET 0.055723 -0.038469 0.008037
										CHANNELS 3 Xrotation Yrotation Zrotation
										JOINT f_middle.02.L
										{
											OFFSET 0.038167 -0.027473 -0.015582
											CHANNELS 3 Xrotation Yrotation Zrotation
											JOINT f_middle.03.L
											{
												OFFSET 0.021707 -0.016587 -0.017037
												CHANNELS 3 Xrotation Yrotation Zrotation
												End Site
												{
													OFFSET 0.014112 -0.010584 -0.014294
												}
											}
										}
									}
								}
								JOINT palm.03.L
								{
									OFFSET 0.039230 -0.011402 0.008390
									CHANNELS 6 Xposition Yposition Zposition Yrotation Xrotation Zrotation
									JOINT f_ring.01.L
									{
										OFFSET 0.061796 -0.031470 0.007910
										CHANNELS 3 Xrotation Yrotation Zrotation
										JOINT f_ring.02.L
										{
											OFFSET 0.033092 -0.023401 -0.019127
											CHANNELS 3 Xrotation Yrotation Zrotation
											JOINT f_ring.03.L
											{
												OFFSET 0.021392 -0.015362 -0.017824
												CHANNELS 3 Xrotation Yrotation Zrotation
												End Site
												{
													OFFSET 0.008670 -0.007297 -0.014686
												}
											}
										}
									}
								}
								JOINT palm.04.L
								{
									OFFSET 0.043417 0.002450 0.002889
									CHANNELS 6 Xposition Yposition Zposition Yrotation Xrotation Zrotation
									JOINT f_pinky.01.L
									{
										OFFSET 0.069986 -0.026156 0.003627
										CHANNELS 3 Xrotation Yrotation Zrotation
										JOINT f_pinky.02.L
										{
											OFFSET 0.018520 -0.012813 -0.016429
											CHANNELS 3 Xrotation Yrotation Zrotation
											JOINT f_pinky.03.L
											{
												OFFSET 0.013822 -0.009796 -0.014947
												CHANNELS 3 Xrotation Yrotation Zrotation
												End Site
												{
													OFFSET 0.007238 -0.006103 -0.011657
												}
											}
										}
									}
								}
							}
						}
					}
				}
				JOINT shoulder.R
				{
					OFFSET -0.016662 0.078957 0.057696
					CHANNELS 6 Xposition Yposition Zposition Yrotation Xrotation Zrotation
					JOINT upper_arm.R
					{
						OFFSET -0.176972 -0.020537 -0.095144
						CHANNELS 6 Xposition Yposition Zposition Xrotation Yrotation Zrotation
						JOINT forearm.R
						{
							OFFSET -0.247100 -0.135500 -0.061800
							CHANNELS 3 Xrotation Yrotation Zrotation
							JOINT hand.R
							{
								OFFSET -0.217000 -0.143000 0.039300
								CHANNELS 3 Xrotation Yrotation Zrotation
								JOINT palm.01.R
								{
									OFFSET -0.021773 -0.038278 0.012988
									CHANNELS 6 Xposition Yposition Zposition Yrotation Xrotation Zrotation
									JOINT f_index.01.R
									{
										OFFSET -0.053212 -0.044139 0.008249
										CHANNELS 3 Xrotation Yrotation Zrotation
										JOINT f_index.02.R
										{
											OFFSET -0.036049 -0.024835 -0.010634
											CHANNELS 3 Xrotation Yrotation Zrotation
											JOINT f_index.03.R
											{
												OFFSET -0.021371 -0.014881 -0.010866
												CHANNELS 3 Xrotation Yrotation Zrotation
												End Site
												{
													OFFSET -0.015584 -0.009883 -0.013422
												}
											}
										}
									}
									JOINT thumb.01.R
									{
										OFFSET 0.009113 -0.002381 -0.024211
										CHANNELS 6 Xposition Yposition Zposition Xrotation Yrotation Zrotation
										JOINT thumb.02.R
										{
											OFFSET -0.019694 -0.035097 -0.011088
											CHANNELS 3 Xrotation Yrotation Zrotation
											JOINT thumb.03.R
											{
												OFFSET -0.024867 -0.021762 -0.005168
												CHANNELS 3 Xrotation Yrotation Zrotation
												End Site
												{
													OFFSET -0.016120 -0.013036 -0.001565
												}
											}
										}
									}
								}
								JOINT palm.02.R
								{
									OFFSET -0.032828 -0.025095 0.012286
									CHANNELS 6 Xposition Yposition Zposition Yrotation Xrotation Zrotation
									JOINT f_middle.01.R
									{
										OFFSET -0.055721 -0.038472 0.008040
										CHANNELS 3 Xrotation Yrotation Zrotation
										JOINT f_middle.02.R
										{
											OFFSET -0.038101 -0.027593 -0.015557
											CHANNELS 3 Xrotation Yrotation Zrotation
											JOINT f_middle.03.R
											{
												OFFSET -0.021730 -0.016530 -0.017054
												CHANNELS 3 Xrotation Yrotation Zrotation
												End Site
												{
													OFFSET -0.014096 -0.010608 -0.014293
												}
											}
										}
									}
								}
								JOINT palm.03.R
								{
									OFFSET -0.039192 -0.011488 0.008390
									CHANNELS 6 Xposition Yposition Zposition Yrotation Xrotation Zrotation
									JOINT f_ring.01.R
									{
										OFFSET -0.061839 -0.031387 0.007876
										CHANNELS 3 Xrotation Yrotation Zrotation
										JOINT f_ring.02.R
										{
											OFFSET -0.033068 -0.023437 -0.019125
											CHANNELS 3 Xrotation Yrotation Zrotation
											JOINT f_ring.03.R
											{
												OFFSET -0.021371 -0.015393 -0.017822
												CHANNELS 3 Xrotation Yrotation Zrotation
												End Site
												{
													OFFSET -0.008654 -0.007321 -0.014684
												}
											}
										}
									}
								}
								JOINT palm.04.R
								{
									OFFSET -0.043421 0.002443 0.002845
									CHANNELS 6 Xposition Yposition Zposition Yrotation Xrotation Zrotation
									JOINT f_pinky.01.R
									{
										OFFSET -0.069983 -0.026169 0.003599
										CHANNELS 3 Xrotation Yrotation Zrotation
										JOINT f_pinky.02.R
										{
											OFFSET -0.018501 -0.012842 -0.016428
											CHANNELS 3 Xrotation Yrotation Zrotation
											JOINT f_pinky.03.R
											{
												OFFSET -0.013806 -0.009821 -0.014946
												CHANNELS 3 Xrotation Yrotation Zrotation
												End Site
												{
													OFFSET -0.007226 -0.006121 -0.011655
												}
											}
										}
									}
								}
							}
						}
					}
				}
			}
		}
	}
	JOINT pelvis.L
	{
		OFFSET 0.000000 0.000000 0.000000
		CHANNELS 6 Xposition Yposition Zposition Xrotation Yrotation Zrotation
		JOINT thigh.L
		{
			OFFSET 0.101675 0.001054 -0.000000
			CHANNELS 3 Xrotation Yrotation Zrotation
			JOINT shin.L
			{
				OFFSET 0.000000 -0.534800 0.041000
				CHANNELS 3 Xrotation Yrotation Zrotation
				JOINT foot.L
				{
					OFFSET 0.000000 -0.452000 -0.044800
					CHANNELS 3 Xrotation Yrotation Zrotation
					JOINT toe.L
					{
						OFFSET -0.000000 -0.068500 0.109600
						CHANNELS 3 Xrotation Yrotation Zrotation
						End Site
						{
							OFFSET -0.000000 0.000000 0.067200
						}
					}
				}
				JOINT heel.L
				{
					OFFSET 0.000000 -0.452000 -0.044800
					CHANNELS 3 Xrotation Yrotation Zrotation
					JOINT heel.02.L
					{
						OFFSET -0.038000 -0.085200 0.016200
						CHANNELS 6 Xposition Yposition Zposition Xrotation Yrotation Zrotation
						End Site
						{
							OFFSET 0.080000 -0.000000 0.000000
						}
					}
				}
			}
		}
	}
	JOINT pelvis.R
	{
		OFFSET 0.000000 0.000000 0.000000
		CHANNELS 6 Xposition Yposition Zposition Xrotation Yrotation Zrotation
		JOINT thigh.R
		{
			OFFSET -0.094325 0.001054 0.000000
			CHANNELS 3 Xrotation Yrotation Zrotation
			JOINT shin.R
			{
				OFFSET 0.000000 -0.534800 0.041000
				CHANNELS 3 Xrotation Yrotation Zrotation
				JOINT foot.R
				{
					OFFSET 0.000000 -0.452000 -0.044800
					CHANNELS 3 Xrotation Yrotation Zrotation
					JOINT toe.R
					{
						OFFSET -0.000000 -0.068500 0.109600
						CHANNELS 3 Xrotation Yrotation Zrotation
						End Site
						{
							OFFSET -0.000000 0.000000 0.067200
						}
					}
				}
				JOINT heel.R
				{
					OFFSET 0.000000 -0.452000 -0.044800
					CHANNELS 3 Xrotation Yrotation Zrotation
					JOINT heel.02.R
					{
						OFFSET 0.038000 -0.085200 0.016200
						CHANNELS 6 Xposition Yposition Zposition Xrotation Yrotation Zrotation
						End Site
						{
							OFFSET -0.080000 0.000000 -0.000000
						}
					}
				}
			}
		}
	}
}
MOTION
Frames: 4
Frame Time: 0.041667
-0.003675 0.299928 -0.021708 0.000000 -0.000000 0.000000 -0.000001 0.000000 0.000000 -0.000000 0.000000 0.000000 -0.000000 0.000000 0.000000 -0.000000 -0.000000 -0.000000 0.000924 0.155147 0.009274 -0.000001 -0.000000 -0.000000 0.019937 0.078966 0.057518 0.000001 0.000001 -0.000005 0.177024 -0.020465 -0.095062 -0.000006 -0.000003 0.000015 -0.000009 -0.000004 -0.000009 -0.000000 0.000000 0.000001 0.021770 -0.038291 0.012954 0.000001 -0.000001 0.000001 -0.000001 -0.000001 -0.000002 -0.000001 -0.000000 0.000007 -0.000000 0.000000 0.000003 -0.009090 -0.002348 -0.024224 -0.000002 0.000001 0.000001 0.000001 -0.000001 0.000001 -0.000000 0.000000 -0.000001 0.032823 -0.025104 0.012281 0.000000 -0.000000 0.000000 0.000001 0.000004 -0.000003 -0.000001 -0.000000 -0.000000 -0.000001 -0.000003 0.000003 0.039230 -0.011402 0.008390 -0.000000 -0.000000 0.000008 0.000001 0.000001 -0.000000 -0.000001 0.000003 -0.000001 0.000002 0.000002 -0.000000 0.043417 0.002450 0.002889 -0.000000 0.000001 0.000002 -0.000001 -0.000003 0.000001 -0.000000 0.000003 -0.000000 -0.000000 -0.000003 0.000001 -0.016662 0.078956 0.057696 -0.000001 0.000002 0.000011 -0.176972 -0.020537 -0.095144 0.000001 -0.000003 -0.000005 -0.000006 0.000005 -0.000014 -0.000001 -0.000000 0.000000 -0.021773 -0.038278 0.012988 0.000000 -0.000001 -0.000003 -0.000001 0.000001 -0.000003 -0.000001 -0.000000 0.000001 0.000001 0.000002 0.000007 0.009113 -0.002381 -0.024211 0.000002 -0.000001 0.000004 -0.000000 0.000001 0.000002 0.000000 0.000000 -0.000003 -0.032828 -0.025095 0.012286 0.000001 -0.000001 -0.000001 -0.000001 0.000003 -0.000003 -0.000002 0.000004 -0.000001 0.000001 -0.000002 -0.000000 -0.039192 -0.011488 0.008390 0.000000 0.000000 0.000001 -0.000000 0.000003 -0.000003 -0.000001 0.000001 0.000002 -0.000001 0.000000 -0.000003 -0.043421 0.002443 0.002844 -0.000000 -0.000001 0.000000 -0.000007 0.000003 -0.000002 -0.000003 -0.000000 -0.000000 0.000001 -0.000000 0.000001 -0.000000 0.000000 -0.000000 -0.000001 -0.000000 0.000001 0.000009 -0.000202 0.000014 -0.000026 0.000202 -0.000015 0.000000 -0.000000 -0.000000 0.000002 -0.000000 -0.000000 0.000000 0.000000 -0.000000 -0.038000 -0.085200 0.016200 0.000000 0.000000 0.000000 0.000000 -0.000000 -0.000000 -0.000001 0.000000 -0.000004 0.000008 -0.000013 0.000005 -0.000012 0.000013 -0.000001 -0.000003 -0.000000 -0.000000 0.000000 -0.000000 -0.000000 0.000002 -0.000000 -0.000000 0.038000 -0.085200 0.016200 0.000002 -0.000000 0.000000 
-0.001076 0.266986 -0.020730 18.830429 70.119986 -14.155285 -0.000001 -0.000002 -0.000000 -0.000001 -0.000002 -0.000000 0.000000 0.000000 -0.000000 -0.000001 -0.000002 -0.000000 0.000924 0.155147 0.009274 21.182932 -0.021260 1.813003 0.019937 0.078966 0.057518 9.973527 4.269634 26.698267 0.177025 -0.020465 -0.095062 -4.869789 11.223805 -65.521697 0.551073 -1.002806 -3.739018 -0.000000 -0.000001 -0.000000 0.021770 -0.038291 0.012954 0.000001 0.000001 0.000001 -0.000003 -0.000001 -0.000000 0.000000 -0.000001 0.000003 0.000002 0.000004 0.000002 -0.009090 -0.002348 -0.024224 -0.000002 -0.000002 -0.000001 0.000000 0.000001 0.000005 -0.000001 -0.000001 0.000001 0.032823 -0.025104 0.012281 -0.000000 0.000000 0.000004 -0.000001 0.000002 -0.000002 -0.000001 -0.000000 0.000003 -0.000003 -0.000002 0.000002 0.039230 -0.011402 0.008390 0.000001 -0.000001 0.000004 -0.000002 0.000001 -0.000005 -0.000001 0.000002 0.000005 -0.000000 -0.000006 0.000001 0.043417 0.002450 0.002889 -0.000001 0.000002 -0.000002 0.000002 -0.000006 0.000002 -0.000004 -0.000003 0.000001 0.000004 -0.000004 0.000000 -0.016662 0.078956 0.057696 0.865284 3.016652 -27.664751 -0.176972 -0.020537 -0.095144 -4.347813 -11.860184 66.552537 0.678528 1.488479 7.812954 -0.000004 -0.000003 0.000001 -0.021773 -0.038278 0.012988 0.000001 -0.000000 -0.000003 -0.000002 0.000003 0.000001 -0.000003 -0.000000 -0.000001 0.000004 -0.000002 0.000003 0.009114 -0.002381 -0.024211 0.000001 -0.000002 -0.000003 -0.000002 -0.000003 0.000002 0.000001 -0.000002 -0.000001 -0.032828 -0.025095 0.012286 0.000002 0.000001 0.000001 -0.000002 -0.000000 -0.000005 -0.000006 -0.000003 0.000001 -0.000004 -0.000001 -0.000004 -0.039192 -0.011488 0.008390 0.000000 0.000005 0.000003 -0.000005 -0.000000 0.000000 0.000001 0.000001 -0.000000 -0.000006 -0.000001 -0.000002 -0.043421 0.002443 0.002845 -0.000001 0.000001 0.000002 -0.000002 0.000004 0.000004 0.000001 0.000000 0.000000 0.000001 0.000002 0.000003 0.000000 0.000000 -0.000000 -1.552487 -0.066115 -0.183371 -11.362783 -0.254980 -2.320505 29.396410 -0.575110 5.814783 0.000003 0.000001 0.000002 -0.000002 -0.000000 -0.000001 0.000002 0.000000 0.000001 -0.038000 -0.085200 0.016200 0.000000 0.000001 0.000000 0.000000 -0.000000 0.000000 -1.521147 -0.065893 1.050849 -7.624979 0.546477 6.206915 14.576899 0.123051 -1.240985 0.000002 -0.000001 0.000002 0.000002 -0.000001 0.000001 0.000005 -0.000000 0.000002 0.038000 -0.085200 0.016200 0.000003 -0.000002 -0.000000 
-0.002409 0.276319 -0.019716 38.688654 76.334993 -33.305485 -0.000001 -0.000000 -0.000000 0.000000 -0.000001 0.000000 -0.000001 -0.000001 0.000000 -0.000002 -0.000001 -0.000000 0.000924 0.155148 0.009274 22.036533 -0.020419 2.423811 0.019937 0.078966 0.057518 8.331158 4.874773 28.404807 0.177024 -0.020465 -0.095062 -4.509795 11.077597 -64.395529 -0.233102 -2.065021 -5.027379 -0.000002 -0.000001 -0.000004 0.021770 -0.038291 0.012954 0.000001 -0.000000 0.000003 0.000002 -0.000001 0.000003 0.000001 -0.000000 0.000003 -0.000003 -0.000000 -0.000000 -0.009090 -0.002348 -0.024223 0.000001 -0.000001 0.000003 0.000000 0.000000 0.000001 -0.000001 0.000000 0.000003 0.032823 -0.025104 0.012281 -0.000001 0.000001 0.000007 0.000001 0.000000 -0.000005 -0.000001 -0.000004 0.000005 0.000003 0.000002 -0.000003 0.039230 -0.011402 0.008390 0.000001 -0.000001 0.000003 -0.000000 -0.000000 0.000001 0.000002 0.000005 0.000001 0.000000 -0.000001 -0.000002 0.043417 0.002450 0.002889 -0.000001 -0.000000 0.000000 0.000001 -0.000004 -0.000004 0.000001 0.000000 0.000002 0.000001 -0.000001 -0.000002 -0.016662 0.078956 0.057696 -2.626946 3.495893 -26.485032 -0.176972 -0.020537 -0.095144 0.030726 -11.438466 66.785235 2.636741 -0.883512 7.779149 0.000001 0.000000 -0.000003 -0.021773 -0.038278 0.012988 -0.000000 -0.000001 0.000002 -0.000003 -0.000000 0.000000 -0.000003 0.000001 -0.000006 -0.000003 0.000000 0.000003 0.009114 -0.002381 -0.024212 0.000001 -0.000003 0.000000 0.000001 -0.000004 0.000005 -0.000003 -0.000000 -0.000003 -0.032828 -0.025095 0.012286 0.000002 0.000001 -0.000001 0.000001 -0.000000 -0.000003 0.000003 0.000003 0.000002 0.000003 -0.000003 -0.000002 -0.039192 -0.011488 0.008390 -0.000001 0.000000 0.000001 -0.000001 0.000003 -0.000002 -0.000001 0.000006 0.000000 -0.000001 0.000002 -0.000004 -0.043421 0.002443 0.002845 -0.000001 -0.000003 0.000002 -0.000005 0.000000 0.000001 0.000002 0.000000 0.000000 -0.000001 0.000003 -0.000002 -0.000000 0.000000 -0.000000 -1.480356 0.012501 -1.182329 -16.243969 -0.231322 -1.760528 27.276432 -0.469090 4.740422 -0.000002 0.000001 -0.000001 -0.000001 0.000001 -0.000001 0.000000 0.000001 0.000000 -0.038000 -0.085200 0.016200 0.000000 -0.000000 0.000001 -0.000000 0.000000 -0.000000 -1.448197 0.012174 0.051862 -12.199662 0.491719 5.181291 16.405776 0.273665 -2.761577 0.000002 0.000000 -0.000000 0.000002 -0.000000 -0.000000 0.000007 0.000000 -0.000001 0.038000 -0.085200 0.016200 -0.000002 0.000000 0.000000 
-0.004679 0.284159 -0.018834 42.164718 67.642519 -35.614731 0.000000 0.000000 -0.000001 -0.000001 -0.000000 0.000001 -0.000003 -0.000000 0.000000 -0.000001 0.000002 -0.000001 0.000924 0.155147 0.009274 14.122430 -0.016184 2.403590 0.019937 0.078966 0.057518 6.926443 4.968521 28.635211 0.177024 -0.020465 -0.095062 -2.062162 10.959341 -65.473244 -1.501473 -3.891996 -10.025541 -0.000001 -0.000001 -0.000004 0.021770 -0.038291 0.012954 0.000001 -0.000000 -0.000004 -0.000001 -0.000000 0.000001 0.000002 -0.000002 0.000006 0.000002 0.000001 -0.000002 -0.009090 -0.002348 -0.024224 0.000001 -0.000002 -0.000001 -0.000001 -0.000001 -0.000001 0.000000 0.000001 -0.000001 0.032823 -0.025104 0.012281 0.000001 -0.000000 0.000005 0.000001 0.000003 -0.000002 -0.000000 -0.000000 -0.000002 0.000001 0.000001 0.000003 0.039230 -0.011402 0.008390 0.000001 0.000000 0.000003 -0.000001 0.000001 0.000005 -0.000001 0.000006 0.000003 0.000001 -0.000001 0.000005 0.043417 0.002450 0.002889 -0.000001 0.000001 -0.000005 -0.000003 -0.000003 0.000001 -0.000004 0.000002 0.000000 -0.000003 -0.000003 -0.000003 -0.016662 0.078957 0.057696 -2.825905 3.402524 -25.335518 -0.176972 -0.020537 -0.095144 2.588176 -11.151559 68.234034 4.186738 -2.588822 8.483362 0.000002 0.000004 0.000001 -0.021773 -0.038278 0.012988 -0.000002 -0.000001 0.000002 0.000001 0.000004 0.000002 -0.000001 0.000001 -0.000001 0.000002 0.000003 0.000002 0.009113 -0.002381 -0.024211 0.000003 0.000001 0.000003 -0.000000 -0.000006 0.000002 0.000001 0.000000 -0.000003 -0.032828 -0.025095 0.012286 -0.000000 0.000000 -0.000004 0.000003 0.000002 -0.000006 0.000005 0.000002 -0.000002 -0.000002 0.000007 -0.000002 -0.039192 -0.011488 0.008390 -0.000004 0.000001 0.000005 0.000004 0.000001 -0.000002 -0.000004 0.000000 0.000002 -0.000000 0.000002 -0.000003 -0.043421 0.002443 0.002845 -0.000004 -0.000001 0.000000 -0.000003 0.000004 -0.000002 0.000001 -0.000004 0.000002 0.000001 -0.000001 -0.000001 0.000000 0.000000 -0.000000 -1.431368 -0.014458 -0.840173 -24.112041 -0.210795 -1.108714 31.431663 -0.436349 4.408945 0.000000 -0.000001 0.000001 0.000002 0.000001 0.000001 0.000005 -0.000001 0.000002 -0.038000 -0.085200 0.016200 -0.000000 -0.000003 0.000003 0.000000 0.000000 -0.000000 -1.401049 -0.014585 0.394004 -20.541577 0.537192 5.240178 22.168796 0.336209 -3.393458 -0.000005 0.000000 -0.000001 0.000002 0.000002 0.000000 0.000002 -0.000001 -0.000001 0.038000 -0.085200 0.016200 -0.000001 -0.000001 0.000001 
